<?xml version="1.0" encoding="UTF-8" standalone="no"?>
<!DOCTYPE svg PUBLIC "-//W3C//DTD SVG 1.1//EN" "http://www.w3.org/Graphics/SVG/1.1/DTD/svg11.dtd">
<!-- Created with Vectornator (http://vectornator.io/) -->
<svg height="1023.9999999999999pt" stroke-miterlimit="10" style="fill-rule:nonzero;clip-rule:evenodd;stroke-linecap:round;stroke-linejoin:round;" version="1.1" viewBox="0 0 1024 1024" width="1024.0pt" xml:space="preserve" xmlns="http://www.w3.org/2000/svg" xmlns:xlink="http://www.w3.org/1999/xlink">
<defs>
<linearGradient gradientTransform="matrix(1 0 0 1 -5.68434e-14 5.68434e-14)" gradientUnits="userSpaceOnUse" id="LinearGradient" x1="216.344" x2="821.844" y1="415.641" y2="415.641">
<stop offset="0" stop-color="#000000"/>
<stop offset="1" stop-color="#000000"/>
</linearGradient>
</defs>
<g id="iMONKEy">
<g opacity="1">
<path d="M485.581 90.8205L481.351 77.6747L450.773 65.3004L427.173 88.37L427.71 102.463L364.961 131.017L353.787 122.328L319.145 121.719L309.402 152.895L314.406 165.035L266.661 211.159L253.906 205.713L222.151 218.883L224.158 253.017L234.427 262.764L207.417 322.811L193.826 325.143L169.613 346.447L183.924 373.788L195.183 380.246L193.417 452.273L181.781 458.444L169.613 487.62L194.189 506.834L207.656 507.305L235.31 570.412L226.075 579.476L222.379 613.325L255.058 625.208L266.174 620.301L315.332 668.199L310.234 681.213L321.374 711.078L351.948 711.461L362.408 703.142L428.705 732.721L430.788 745.985L452.948 767.053L478.87 752.374L484.377 741.052L557.377 740.803L562.782 753.041L590.74 764.439L611.727 742.117L611.921 741.764L612.736 729.004L675.595 701.13L685.689 711.395L718.734 714.342L730.206 683.37L725.253 669.269L774.194 619.843L788.197 624.3L818.173 613.632L815.395 580.859L805.678 570.173L835.345 507.13L849.012 505.248L872.415 483.938L858.274 456.294L846.573 449.97L846.201 379.622L858.828 372.551L872.415 344.945L847.594 323.926L834.528 322.932L805.474 259.627L815.61 247.541L816.45 215.356L786.571 204.742L773.014 209.849L724.572 162.134L730.05 149.499L718.163 118.993L685.586 119.76L675.202 129.171L612.772 101.863L611.49 89.0254L589.516 65.0984L559.701 79.4897L555.214 90.6195L485.581 90.8205Z" fill="#ffffff" fill-rule="nonzero" opacity="1" stroke="#000000" stroke-linecap="butt" stroke-linejoin="round" stroke-width="4.46611"/>
<path d="M441.419 363.679C433.835 363.679 427.7 369.736 427.7 377.211C427.7 384.685 433.835 390.742 441.419 390.742C449.003 390.742 455.138 384.685 455.138 377.211C455.138 369.736 449.003 363.679 441.419 363.679ZM598.513 363.898C590.929 363.898 584.763 370.033 584.763 377.617C584.763 385.201 590.929 391.336 598.513 391.336C606.097 391.336 612.231 385.201 612.231 377.617C612.231 370.033 606.097 363.898 598.513 363.898Z" fill="#000000" fill-rule="nonzero" opacity="1" stroke="#000000" stroke-linecap="butt" stroke-linejoin="round" stroke-width="6.17011"/>
<path d="M519.969 188.781C406.449 188.781 314.406 280.824 314.406 394.344C314.406 507.864 406.449 599.875 519.969 599.875C633.489 599.875 725.5 507.864 725.5 394.344C725.5 280.824 633.489 188.781 519.969 188.781ZM440.125 362.844C448.823 362.844 455.875 369.895 455.875 378.594C455.875 387.292 448.823 394.344 440.125 394.344C431.427 394.344 424.375 387.292 424.375 378.594C424.375 369.895 431.427 362.844 440.125 362.844ZM596.656 362.844C605.355 362.844 612.406 369.895 612.406 378.594C612.406 387.292 605.355 394.344 596.656 394.344C587.958 394.344 580.906 387.292 580.906 378.594C580.906 369.895 587.958 362.844 596.656 362.844Z" fill="#ffffff" fill-rule="nonzero" opacity="1" stroke="none"/>
<path d="M508.562 108.344C503.44 108.344 499.281 112.503 499.281 117.625C499.281 120.037 500.242 122.193 501.75 123.844L501.938 132.938L509.219 140.75L508.719 319.406L515.562 312.562L516 136.688L510.25 131.375L510.25 126.562C514.536 125.744 517.842 122.15 517.844 117.625C517.844 112.502 513.685 108.344 508.562 108.344ZM529.625 108.344C524.503 108.344 520.344 112.502 520.344 117.625C520.345 122.15 523.651 125.744 527.938 126.562L527.938 131.375L522.188 136.688L522.625 312.562L529.469 319.406L528.969 140.75L536.25 132.938L536.438 123.844C537.946 122.193 538.906 120.037 538.906 117.625C538.906 112.503 534.748 108.344 529.625 108.344ZM484.25 110.969C478.721 110.969 474.217 115.44 474.219 120.969C474.219 125.2 476.85 128.784 480.562 130.25L480.406 131.5L480.531 156.656L493.031 170.594L493.281 180.125L475.719 161.781L475.688 132.625L467.469 132.688L467.375 167.562L493.25 194.656L493.062 260.5L485.281 254.781L485 196.25L461.031 171.406L461.156 127.625C464.146 126.499 466.311 123.696 466.312 120.312C466.313 115.949 462.77 112.406 458.406 112.406C454.043 112.406 450.498 115.949 450.5 120.312C450.5 123.585 452.508 126.363 455.344 127.562L455.75 156.969L448.594 161.813L447.969 174.375L475.688 203.344L475.625 212.594L466.219 217.812L466.312 291.969L472.875 292.969L472.969 223.125L478.406 219.906L478.281 258.062L493.25 269.438L493.156 333.938L505.125 345.938L505.187 370.438C505.187 370.438 490.831 379.461 490.781 379.469L495.656 372.938L495.656 362.688L495.656 349.281L485.438 338.344L485.781 277.312L477.781 272.156L477.594 342.219L486.5 351.719L486.281 368.844L478.125 364.875L478 353L467.031 343L466.906 327.906L461 313.938L460.875 206.094L438.562 186.156L438.406 152.094C438.451 152.094 438.516 152.094 438.562 152.094C445.163 152.094 450.5 146.757 450.5 140.156C450.5 133.556 445.166 128.188 438.562 128.188C431.962 128.187 426.562 133.555 426.562 140.156C426.563 143.741 428.188 146.903 430.687 149.094L431.469 190.094L453.406 212.406L453.406 314.188L459.25 327.562L459.187 345.094L470.5 354.844L470.625 360.781L464.156 356.312C459.668 354.89 458.67 355.973 454.625 353.469C453.586 352.825 445.328 348.269 445.125 348.188C444.806 347.949 445.462 349.521 446.656 351.594L448.875 355.344L444.969 353.312C442.818 352.277 437.89 350.215 433.906 348.781C430.003 347.347 425.712 345.7 424.437 345.062C421.888 343.788 422.023 344.562 424.969 347.75C426.96 349.981 426.738 349.961 421.875 347.812C415.82 345.104 408.414 345.435 400.844 348.625C396.382 350.537 395.586 351.083 397.656 350.844C404.747 349.808 409.139 349.597 407.625 350.312C405.394 351.269 389.807 352.925 388.687 352.281C383.509 349.413 380.192 346.645 380.594 345.375C381.311 343.065 378.845 339.998 376.219 340C373.51 340 372.239 341.379 372 344.406C371.841 345.92 372.318 347.06 373.594 347.938C374.629 348.655 377.665 351.107 380.375 353.5C385.633 358.041 386.983 358.748 393.281 360.344C395.99 361.061 396.625 361.356 395.188 361.438C391.841 361.597 380.899 358.51 377.312 356.438C375.48 355.322 372.246 352.848 370.094 350.938C365.075 346.476 363.803 346.01 361.812 348C359.502 350.31 359.669 358.658 362.219 365.906L364.125 371.5L361.031 367.906C356.331 362.569 353.844 357.224 353.844 352.281C353.844 347.74 354.865 346.052 363.469 337.125L365.906 334.594L367.375 333.031L367.375 323.656L390.906 343.312L409.781 332.688L414.5 332.625C415.879 335.17 418.464 336.969 421.562 336.969C426.065 336.969 429.75 333.315 429.75 328.812C429.75 324.31 426.065 320.656 421.562 320.656C417.991 320.656 415.074 322.991 413.969 326.188L407.844 326.75L393.406 334.656L367.875 312.531L367.875 281.281L345.875 259.938L310.531 259.594L293.625 243.594C295.109 236.654 290.151 231.156 285.062 231.156C279.898 231.156 275.718 235.361 275.719 240.531C275.719 245.402 280.611 250.189 286.062 248.906L305.469 267.875L335.656 268.094L354.687 286.406L355.125 316.625C355.125 316.625 352.762 319.935 351.594 322.062C350.048 324.878 349.03 336.5 349.031 336.5C348.575 338.33 348.103 340.157 347.406 342.094C346.036 345.949 343.007 348.72 342.437 353C342.437 353 345.444 359.703 346.281 365.906C347.119 372.11 345.78 377.813 345.781 377.812C345.781 377.812 343.183 377.932 343.094 377.875C343.094 377.875 344.012 372.601 343 366.844C341.811 360.085 338.681 352.632 338.781 352C338.781 352 343.182 342.64 343.656 341.219C345.061 337.006 346.033 329.125 346.031 329.125C346.112 326.591 345.871 324.416 345.156 323.062C345.145 323.042 345.136 323.021 345.125 323L344.781 320.594L349.031 314.156L348.594 293.562L330.281 276.875L294.219 276.688L285.187 266.844C285.486 265.874 285.656 264.85 285.656 263.781C285.656 258.032 281.056 253.373 275.312 253.375C269.569 253.375 264.875 258.031 264.875 263.781C264.875 269.18 269.025 273.573 274.281 274.094L285.344 286.406L326.719 286.469L326.687 292.844L284.219 293.031L267.969 278.188L259.187 278.125C258.663 273.379 254.788 269.625 249.906 269.625C244.669 269.625 240.437 273.882 240.437 279.125C240.437 284.368 244.669 288.624 249.906 288.625C251.685 288.625 253.264 287.978 254.687 287.125L265.125 287.062L285.75 304.562L311.562 304.562L330.625 322.031L330.719 333.906L306.531 311.625L282.562 312.031L264.312 298.125L250.344 298.562C249.129 297.7 247.728 297.093 246.125 297.094C242.013 297.094 238.688 300.414 238.687 304.531C238.688 308.648 242.012 311.968 246.125 311.969C248.982 311.969 251.407 310.332 252.656 307.969L265 307.719L295.969 335.156L321.719 335.188L321.625 343.375L294.156 343.187L264.312 317.344L246.156 317.562C244.229 316.437 242.006 315.75 239.594 315.75C232.505 315.75 226.751 321.322 226.75 328.219C226.75 335.116 232.505 340.719 239.594 340.719C244.35 340.719 248.438 338.175 250.656 334.438L270.094 334.656L290.25 351.969L314.781 351.875L314.875 358.875L288.156 359.188L270.062 344.594L237.656 344.594L256.531 359.094L272.687 359.219L285.438 370.312L324.437 370.156L324.375 376.969L234.125 378.125L234.125 387.938L340.531 387.562L340.625 395.5L236.75 395.562C234.583 393.556 231.634 392.311 228.406 392.312C221.734 392.312 216.344 397.571 216.344 404.062C216.344 410.555 221.732 415.811 228.406 415.812C231.92 415.812 235.105 414.327 237.312 412L237.312 412.281L324.219 412.437L346 432.75L332.594 432.875L319.375 420.812L241.875 420.938L234.469 427.188C233.214 425.499 231.305 424.313 229 424.312C225.184 424.312 222.094 427.321 222.094 431.031C222.094 434.744 225.503 436.225 229 437.75C234.908 440.33 243.969 430.656 243.969 430.656L304.688 430.469L304.844 436.469L239.281 437.625L239.25 454.594L251.187 454.688L258.656 446.094L332.406 445.125L338.187 451.5L332.812 456.656L328.531 456.656L309.5 474.969L303.812 475.344L280.406 498.125L279.187 510.594L270.469 519.625L258.906 519.969C257.248 517.38 254.459 515.562 251.156 515.562C246.003 515.562 241.812 519.751 241.812 524.906C241.812 530.06 246.003 534.252 251.156 534.25C255.629 534.25 259.215 531.014 260.125 526.812L274.094 526.594L285.75 514.719L289.312 518.312L276.75 531.219L265.687 531.094L255.062 542.219L254.219 562.375L263.562 554.281L264.125 545.844L268.719 541.094L277.656 541.344L288.312 530.281L300.687 516.875L300.031 507.125L294.969 502.125L319.25 478.094L326.062 485L313.562 497.406L329.281 514.094L375.375 469.844L380.844 475.062L311.406 543.719L310.375 559.219L282.062 588.469L277.844 590.344C276.822 589.742 275.642 589.281 274.375 589.281C270.588 589.281 267.531 592.369 267.531 596.156C267.531 599.943 270.589 603.001 274.375 603C277.713 603 280.415 600.596 281.031 597.438L288.125 594.156L316.906 564.75L318.062 550.812L383.375 484.781L387.687 489.156L324.281 553.5L324.156 568.312L295.219 598.5L286.625 602.5C282.915 602.588 279.906 605.611 279.906 609.344C279.906 613.131 282.994 616.186 286.781 616.188C290.568 616.188 293.625 613.132 293.625 609.344C293.625 609.203 293.571 609.075 293.562 608.938L300.75 606.031L320.312 586.344L331.562 585.969L337.062 580.219L336.531 551.844L384.781 501.594L384.812 501.594L384.844 501.594L391.125 499.969L391.156 499.969L427.344 463.844L431.75 468.281L395.844 504.719L388.75 505.406L343.25 553.062L343.531 583.844L333.031 594.812L320.687 594.812L309.5 606.469L309.594 636.219L332.031 635.969L345.312 622.438L344.187 611.969L352.219 603.75L361.25 600.875L399.344 563.875L399.344 572.312L365.844 605.562L365.75 619.562L358.625 626.531L349.25 626.562L339.5 636.594L339.719 647.438L348.656 653.094L358.687 645L366.062 638.594L366.281 667.562C364.129 668.916 362.627 671.177 362.625 673.906C362.625 678.131 366.025 681.565 370.25 681.562C374.475 681.562 377.935 678.131 377.938 673.906C377.938 672.952 377.663 672.059 377.344 671.219L377.406 671.125L377.312 671.094C376.3 668.529 375.334 667.243 372.5 666.906L372.437 615.656L393.344 595.156L393.344 604.312L378.656 619.937L378.844 664.438L397.219 679.5L397.719 683.5C395.104 684.465 393.217 686.925 393.219 689.875C393.219 693.662 396.276 696.716 400.062 696.719C403.849 696.719 406.941 693.661 406.937 689.875C406.937 687.082 405.274 684.722 402.875 683.656L402.906 664.344L390.469 652.844L390.531 632.719C387.624 631.16 385.562 628.285 385.562 624.875C385.562 619.847 389.799 615.783 395.062 615.781C400.326 615.781 404.596 619.847 404.594 624.875C404.594 628.869 401.871 632.18 398.125 633.406L398.156 649.687L413.531 664.656L413.531 694.25C411.712 695.887 410.499 698.2 410.5 700.844C410.5 705.783 414.531 709.812 419.469 709.812C424.408 709.813 428.405 705.786 428.406 700.844C428.406 696.785 425.676 693.496 421.969 692.406L421.969 659.5L408.75 645.938L408.875 627.812L413.562 627.812L413.594 642L430.344 658.188L430.344 673.75L440.187 684.437L440.125 693.969C436.363 693.998 433.346 697.072 433.344 700.844C433.344 704.631 436.404 707.684 440.187 707.688C443.974 707.688 447.035 704.632 447.031 700.844L447.281 680.781L440.562 673.219L446.375 668.938L456 680.125L456.062 700.719C453.231 701.583 451.158 704.108 451.156 707.188C451.156 710.975 454.228 714.032 458.062 714.031C461.896 714.031 465.03 710.973 465.031 707.188C465.031 707.141 465.001 707.113 465 707.062L465.125 676.25L455.531 664.031L461.281 659.312L473.75 675.094L473.75 696.719C473.75 696.719 473.787 699.851 476.875 700.438C478.683 700.781 479.429 703.252 479.719 705.688C477.169 706.43 475.251 708.684 475.25 711.469C475.25 714.854 477.988 717.597 481.375 717.594C484.76 717.594 487.502 714.851 487.5 711.469C487.5 709.4 486.416 707.646 484.844 706.531L484.906 692.312C483.056 691.235 481.75 689.299 481.75 687C481.75 683.564 484.533 680.784 487.969 680.781C491.404 680.781 494.189 683.565 494.188 687C494.188 689.02 493.179 690.736 491.688 691.875L491.688 703.969L496.531 710.219C494.47 711.401 493.033 713.549 493.031 716.094C493.031 719.881 496.12 722.938 499.906 722.938C503.693 722.938 506.75 719.885 506.75 716.094C506.75 714.609 506.176 713.308 505.375 712.187L501.531 707.156L515.281 707.25L515.406 624.969C515.406 624.969 510.166 624.931 509.031 621.562C508.297 619.382 508.713 611.356 509.281 609.812C509.614 608.907 511.987 604.413 519 604.469C526.741 604.531 528.639 609.087 528.906 609.812C529.474 611.356 529.891 619.382 529.156 621.562C528.021 624.931 522.781 624.969 522.781 624.969L522.906 707.25L536.656 707.156L532.812 712.187C532.012 713.308 531.438 714.609 531.438 716.094C531.437 719.885 534.494 722.938 538.281 722.938C542.067 722.938 545.156 719.881 545.156 716.094C545.155 713.549 543.717 711.401 541.656 710.219L546.5 703.969L546.5 691.875C545.008 690.736 544 689.02 544 687C543.998 683.565 546.783 680.781 550.219 680.781C553.654 680.784 556.438 683.565 556.438 687C556.437 689.299 555.132 691.235 553.281 692.312L553.344 706.531C551.772 707.645 550.687 709.4 550.688 711.469C550.686 714.851 553.427 717.594 556.812 717.594C560.199 717.597 562.938 714.854 562.938 711.469C562.937 708.684 561.019 706.43 558.469 705.688C558.759 703.252 559.504 700.781 561.312 700.438C564.401 699.851 564.437 696.719 564.437 696.719L564.437 675.094L576.906 659.312L582.656 664.031L573.062 676.25L573.187 707.062C573.187 707.113 573.156 707.141 573.156 707.188C573.158 710.973 576.291 714.031 580.125 714.031C583.96 714.032 587.031 710.975 587.031 707.188C587.03 704.108 584.957 701.584 582.125 700.719L582.188 680.125L591.812 668.938L597.625 673.219L590.906 680.781L591.156 700.844C591.153 704.632 594.213 707.688 598 707.688C601.783 707.684 604.844 704.631 604.844 700.844C604.841 697.072 601.824 693.998 598.062 693.969L598 684.437L607.844 673.75L607.844 658.188L624.594 642L624.625 627.812L629.312 627.812L629.438 645.938L616.219 659.5L616.219 692.406C612.512 693.496 609.781 696.785 609.781 700.844C609.783 705.786 613.78 709.813 618.719 709.812C623.657 709.812 627.687 705.783 627.688 700.844C627.688 698.201 626.476 695.887 624.656 694.25L624.656 664.656L640.031 649.687L640.062 633.406C636.316 632.18 633.594 628.869 633.594 624.875C633.592 619.847 637.861 615.781 643.125 615.781C648.389 615.783 652.625 619.847 652.625 624.875C652.626 628.285 650.563 631.16 647.656 632.719L647.719 652.844L635.281 664.344L635.312 683.656C632.913 684.722 631.25 687.082 631.25 689.875C631.247 693.661 634.338 696.719 638.125 696.719C641.911 696.716 644.969 693.662 644.969 689.875C644.97 686.925 643.083 684.465 640.469 683.5L640.969 679.5L659.344 664.438L659.531 619.937L644.844 604.312L644.844 595.156L665.75 615.656L665.688 666.906C662.853 667.243 661.888 668.529 660.875 671.094L660.781 671.125L660.844 671.219C660.525 672.059 660.25 672.952 660.25 673.906C660.252 678.131 663.713 681.562 667.938 681.562C672.162 681.565 675.562 678.131 675.562 673.906C675.561 671.177 674.059 668.916 671.906 667.562L672.125 638.594L679.5 645L689.531 653.094L698.469 647.438L698.688 636.594L688.938 626.562L679.562 626.531L672.438 619.562L672.344 605.562L638.844 572.312L638.844 563.875L676.937 600.875L685.969 603.75L694 611.969L692.875 622.438L706.156 635.969L728.594 636.219L728.688 606.469L717.5 594.812L705.156 594.812L694.656 583.844L694.937 553.062L649.438 505.406L642.344 504.719L606.437 468.281L610.844 463.844L647.031 499.969L647.062 499.969L653.344 501.594L653.375 501.594L653.406 501.594L701.656 551.844L701.125 580.219L706.625 585.969L717.875 586.344L737.438 606.031L744.625 608.938C744.617 609.075 744.562 609.203 744.563 609.344C744.563 613.132 747.619 616.188 751.406 616.188C755.193 616.186 758.281 613.131 758.281 609.344C758.281 605.611 755.273 602.588 751.562 602.5L742.969 598.5L714.031 568.312L713.906 553.5L650.5 489.156L654.812 484.781L720.125 550.812L721.281 564.75L750.062 594.156L757.156 597.438C757.773 600.596 760.475 603 763.812 603C767.599 603.001 770.656 599.943 770.656 596.156C770.656 592.369 767.599 589.281 763.812 589.281C762.545 589.281 761.365 589.742 760.344 590.344L756.125 588.469L727.812 559.219L726.781 543.719L657.344 475.062L662.812 469.844L708.906 514.094L724.625 497.406L712.125 485L718.938 478.094L743.219 502.125L738.156 507.125L737.5 516.875L749.875 530.281L760.531 541.344L769.469 541.094L774.062 545.844L774.625 554.281L783.969 562.375L783.125 542.219L772.5 531.094L761.437 531.219L748.875 518.312L752.438 514.719L764.094 526.594L778.062 526.812C778.973 531.014 782.559 534.25 787.031 534.25C792.185 534.252 796.375 530.06 796.375 524.906C796.375 519.751 792.185 515.563 787.031 515.562C783.729 515.562 780.94 517.38 779.281 519.969L767.719 519.625L759 510.594L757.781 498.125L734.375 475.344L728.688 474.969L709.656 456.656L705.375 456.656L700 451.5L705.781 445.125L779.531 446.094L787 454.688L798.938 454.594L798.906 437.625L733.344 436.469L733.5 430.469L794.219 430.656C794.218 430.656 803.28 440.33 809.188 437.75C812.684 436.225 816.094 434.744 816.094 431.031C816.094 427.321 813.003 424.313 809.188 424.312C806.883 424.313 804.974 425.499 803.719 427.188L796.312 420.938L718.812 420.812L705.594 432.875L692.187 432.75L713.969 412.437L800.875 412.281L800.875 412C803.083 414.327 806.267 415.812 809.781 415.812C816.455 415.811 821.844 410.555 821.844 404.062C821.844 397.571 816.454 392.312 809.781 392.312C806.553 392.311 803.605 393.556 801.438 395.562L697.562 395.5L697.656 387.562L804.063 387.938L804.063 378.125L713.812 376.969L713.75 370.156L752.75 370.312L765.5 359.219L781.656 359.094L800.531 344.594L768.125 344.594L750.031 359.188L723.312 358.875L723.406 351.875L747.938 351.969L768.094 334.656L787.531 334.438C789.75 338.175 793.838 340.719 798.594 340.719C805.683 340.719 811.437 335.116 811.438 328.219C811.437 321.322 805.683 315.75 798.594 315.75C796.182 315.75 793.959 316.437 792.031 317.562L773.875 317.344L744.031 343.187L716.562 343.375L716.469 335.188L742.219 335.156L773.188 307.719L785.531 307.969C786.781 310.332 789.205 311.969 792.062 311.969C796.176 311.968 799.5 308.648 799.5 304.531C799.499 300.414 796.175 297.094 792.062 297.094C790.46 297.093 789.059 297.7 787.844 298.562L773.875 298.125L755.625 312.031L731.656 311.625L707.469 333.906L707.562 322.031L726.625 304.562L752.438 304.562L773.062 287.062L783.5 287.125C784.923 287.978 786.502 288.625 788.281 288.625C793.518 288.624 797.75 284.368 797.75 279.125C797.751 273.882 793.518 269.625 788.281 269.625C783.4 269.625 779.524 273.379 779 278.125L770.219 278.188L753.969 293.031L711.5 292.844L711.469 286.469L752.844 286.406L763.906 274.094C769.163 273.573 773.313 269.18 773.312 263.781C773.312 258.031 768.618 253.375 762.875 253.375C757.131 253.374 752.531 258.032 752.531 263.781C752.531 264.85 752.702 265.874 753 266.844L743.969 276.688L707.906 276.875L689.594 293.562L689.156 314.156L693.406 320.594L693.062 323C693.052 323.021 693.042 323.042 693.031 323.062C692.317 324.416 692.075 326.591 692.156 329.125C692.155 329.125 693.127 337.006 694.531 341.219C695.005 342.64 699.406 352 699.406 352C699.506 352.632 696.376 360.085 695.188 366.844C694.175 372.601 695.094 377.875 695.094 377.875C695.005 377.932 692.406 377.812 692.406 377.812C692.408 377.813 691.069 372.109 691.906 365.906C692.744 359.703 695.75 353 695.75 353C695.181 348.72 692.151 345.949 690.781 342.094C690.084 340.157 689.612 338.33 689.156 336.5C689.158 336.5 688.14 324.878 686.594 322.062C685.425 319.935 683.062 316.625 683.062 316.625L683.5 286.406L702.531 268.094L732.719 267.875L752.125 248.906C757.576 250.189 762.469 245.402 762.469 240.531C762.469 235.361 758.289 231.156 753.125 231.156C748.037 231.156 743.079 236.654 744.563 243.594L727.656 259.594L692.312 259.938L670.312 281.281L670.312 312.531L644.781 334.656L630.344 326.75L624.219 326.188C623.113 322.991 620.197 320.656 616.625 320.656C612.123 320.656 608.437 324.31 608.438 328.812C608.438 333.315 612.123 336.969 616.625 336.969C619.724 336.969 622.308 335.17 623.688 332.625L628.406 332.688L647.281 343.312L670.812 323.656L670.812 333.031L672.281 334.594L674.719 337.125C683.323 346.052 684.344 347.74 684.344 352.281C684.344 357.224 681.857 362.569 677.156 367.906L674.062 371.5L675.969 365.906C678.518 358.658 678.685 350.31 676.375 348C674.384 346.01 673.113 346.476 668.094 350.938C665.942 352.848 662.707 355.322 660.875 356.438C657.288 358.51 646.346 361.597 643 361.438C641.563 361.356 642.198 361.061 644.906 360.344C651.204 358.748 652.555 358.041 657.812 353.5C660.523 351.107 663.558 348.654 664.594 347.938C665.87 347.06 666.347 345.92 666.188 344.406C665.948 341.379 664.677 340 661.969 340C659.343 339.999 656.877 343.065 657.594 345.375C657.995 346.645 654.678 349.413 649.5 352.281C648.38 352.925 632.793 351.269 630.562 350.312C629.049 349.597 633.441 349.808 640.531 350.844C642.601 351.083 641.805 350.537 637.344 348.625C629.774 345.436 622.367 345.104 616.312 347.812C611.45 349.961 611.227 349.981 613.219 347.75C616.165 344.562 616.299 343.788 613.75 345.062C612.475 345.7 608.185 347.347 604.281 348.781C600.298 350.215 595.37 352.277 593.219 353.312L589.312 355.344L591.531 351.594C592.725 349.521 593.381 347.949 593.062 348.188C592.86 348.269 584.602 352.825 583.562 353.469C579.517 355.973 578.52 354.89 574.031 356.312L567.562 360.781L567.688 354.844L579 345.094L578.938 327.562L584.781 314.188L584.781 212.406L606.719 190.094L607.5 149.094C610 146.903 611.625 143.741 611.625 140.156C611.625 133.555 606.226 128.187 599.625 128.188C593.021 128.188 587.688 133.556 587.688 140.156C587.687 146.757 593.024 152.094 599.625 152.094C599.672 152.094 599.737 152.094 599.781 152.094L599.625 186.156L577.312 206.094L577.188 313.938L571.281 327.906L571.156 343L560.188 353L560.062 364.875L551.906 368.844L551.688 351.719L560.594 342.219L560.406 272.156L552.406 277.312L552.75 338.344L552.688 338.406L552.688 338.5L542.531 349.375L542.531 361.156L542.469 361.062L542.469 362.844L542.469 373.094L547.344 379.625C547.294 379.617 532.938 370.594 532.938 370.594L533 346.094L533.094 346L533.062 345.938L545.031 333.938L544.938 269.438L559.906 258.062L559.781 219.906L565.219 223.125L565.312 292.969L571.875 291.969L571.969 217.812L562.562 212.594L562.5 203.344L590.219 174.375L589.594 161.813L582.438 156.969L582.844 127.562C585.68 126.363 587.687 123.585 587.688 120.312C587.689 115.949 584.145 112.406 579.781 112.406C575.418 112.406 571.875 115.949 571.875 120.312C571.876 123.696 574.041 126.499 577.031 127.625L577.156 171.406L553.188 196.25L552.906 254.781L545.125 260.5L544.938 194.656L570.812 167.562L570.719 132.688L562.5 132.625L562.469 161.781L544.906 180.125L545.156 170.594L557.656 156.656L557.781 131.5L557.625 130.25C561.337 128.784 563.969 125.2 563.969 120.969C563.97 115.44 559.467 110.969 553.938 110.969C548.412 110.969 543.906 115.44 543.906 120.969C543.906 121.585 544.793 123.934 544.875 126.844C545.112 135.206 544.75 149.375 544.75 149.375L535.969 158.5L536.312 325.531L524.688 338.156L524.781 357.906L522.812 361.438L523.437 450.906L529.719 444.969C537.206 437.955 541.577 435.7 548.906 435.062C559.663 434.185 571.697 439.216 580.062 448.219C590.099 458.899 593.277 471.153 588.656 481.031C585.787 487.164 578 496.732 572.344 500.875C569.796 502.868 567.242 504.789 566.844 505.187C566.369 505.584 568.518 504.945 571.625 503.75C580.309 500.565 588.288 495.641 595.219 489.188C598.721 485.92 601.716 483.434 601.875 483.594C602.592 484.308 600.718 492.202 599.125 495.469C598.167 497.221 595.909 500.307 594.156 502.219L590.906 505.719L593.281 505.719C594.557 505.716 597.352 505.262 599.344 504.625C601.415 503.985 603.094 503.67 603.094 503.75C603.092 503.912 602.362 505.344 601.406 506.938C599.339 510.36 599.492 511.024 604.75 523.531C610.646 537.312 612.086 543.893 611.688 554.25C611.37 560.462 610.837 563.887 609.562 567.312C607.49 572.491 606.663 573.047 607.938 568.188C608.5 566.435 608.659 561.578 608.5 556.719C608.02 547.077 606.753 543.029 600.938 533.469C597.031 526.933 595.444 525.58 598.312 531.156C601.657 537.845 603.147 544.145 603.625 553.625C603.942 560.875 603.817 563.71 602.781 567.375C601.347 572.235 597.935 576.656 595.625 576.656C594.909 576.656 588.834 574.306 582.062 571.438C560.558 562.315 543.209 557.815 525.906 556.812C525.907 556.809 512.28 556.803 512.281 556.812C494.979 557.815 477.629 562.315 456.125 571.438C449.353 574.305 443.278 576.656 442.562 576.656C440.252 576.656 436.84 572.235 435.406 567.375C434.371 563.71 434.245 560.875 434.562 553.625C435.041 544.145 436.531 537.845 439.875 531.156C442.743 525.58 441.157 526.933 437.25 533.469C431.434 543.029 430.167 547.077 429.687 556.719C429.528 561.578 429.688 566.435 430.25 568.188C431.525 573.047 430.698 572.491 428.625 567.312C427.35 563.887 426.817 560.462 426.5 554.25C426.102 543.893 427.542 537.312 433.437 523.531C438.696 511.024 438.848 510.36 436.781 506.938C435.825 505.344 435.095 503.912 435.094 503.75C435.094 503.67 436.772 503.984 438.844 504.625C440.835 505.262 443.63 505.716 444.906 505.719L447.281 505.719L444.031 502.219C442.279 500.307 440.02 497.221 439.062 495.469C437.469 492.202 435.595 484.308 436.312 483.594C436.472 483.434 439.466 485.92 442.969 489.188C449.9 495.641 457.879 500.565 466.562 503.75C469.67 504.945 471.819 505.584 471.344 505.187C470.945 504.789 468.392 502.868 465.844 500.875C460.187 496.732 452.401 487.164 449.531 481.031C444.911 471.153 448.088 458.899 458.125 448.219C466.49 439.216 478.525 434.185 489.281 435.062C496.611 435.7 500.982 437.955 508.469 444.969L514.75 450.906L515.375 361.438L513.406 357.906L513.5 338.156L501.875 325.531L502.219 158.5L493.437 149.375C493.437 149.375 493.076 135.206 493.312 126.844C493.395 123.934 494.281 121.585 494.281 120.969C494.281 115.44 489.775 110.969 484.25 110.969ZM431.125 370.438C431.935 370.221 451.281 375.72 451.281 375.719C451.281 375.719 452.526 377.665 453.219 378.781C453.868 388.044 441.689 394 433.688 390C422.862 384.585 425.455 371.95 431.125 370.438ZM607.062 370.438C612.733 371.95 615.326 384.585 604.5 390C596.498 394 584.319 388.044 584.969 378.781C585.662 377.665 586.906 375.719 586.906 375.719C586.906 375.72 606.252 370.221 607.062 370.438ZM358.219 374.438L364.594 379.312L365 393.25L383.469 411.25C393.586 421.129 406.035 427.791 410 428.156C413.469 428.474 425.403 430.45 432.594 421.75C433.062 421.184 414.304 422.725 412.719 421.969C411.302 421.264 393.668 408.415 391.125 405.25C389.766 403.639 383.966 390.259 385.344 387.094C387.993 381.017 391.379 397.545 396.875 402.563C406.594 411.485 418.061 418.081 415.219 415.656C409.416 410.701 405.907 397.059 406.844 395.281C408.736 391.695 415.285 429.551 459.375 406.781C460.687 406.104 458.073 408.544 455.281 410.906C453.441 412.459 451.542 413.995 450.656 414.594C448.505 416.107 446.991 417.313 447.469 417.312C448.704 417.312 450.933 416.908 453.344 416.188C455.756 415.467 458.354 414.449 460.25 413.219C466.863 408.479 467.385 408.839 464.438 413.062C459.737 419.595 449.908 426.134 439.312 429.562C435.035 430.77 430.155 436.249 430.156 436.25L405.844 461.031C405.844 461.031 410.188 465.344 410.188 465.344L439.5 435.844L442.969 439.438L408.719 473.781L398.719 463.25L413.5 448.156L408.719 443.438L398 454.094L379.562 435.906L388.094 427.125C388.094 427.125 381.56 419.853 373.594 412.125L359 398.031L358.219 374.438ZM679.969 374.438L679.188 398.031L664.594 412.125C656.627 419.853 650.094 427.125 650.094 427.125L658.625 435.906L640.187 454.094L629.469 443.438L624.688 448.156L639.469 463.25L629.469 473.781L595.219 439.438L598.688 435.844L628 465.344C628 465.344 632.344 461.031 632.344 461.031L608.031 436.25C608.033 436.249 603.153 430.77 598.875 429.562C588.28 426.134 578.45 419.595 573.75 413.062C572.129 410.74 571.931 409.906 572.844 410.125C572.886 410.175 573.594 411.031 573.594 411.031L573.156 410.312C573.973 410.587 575.142 411.215 577.937 413.219C579.834 414.449 582.432 415.467 584.844 416.188C587.255 416.908 589.484 417.312 590.719 417.312C591.196 417.313 589.682 416.107 587.531 414.594C586.645 413.995 584.747 412.459 582.906 410.906C580.114 408.544 577.5 406.103 578.812 406.781C622.903 429.551 629.451 391.695 631.344 395.281C632.28 397.059 628.772 410.701 622.969 415.656C620.127 418.082 631.593 411.485 641.312 402.563C646.808 397.545 650.195 381.018 652.844 387.094C654.222 390.259 648.422 403.639 647.062 405.25C644.52 408.415 626.886 421.264 625.469 421.969C623.884 422.725 605.126 421.184 605.594 421.75C612.784 430.45 624.719 428.474 628.188 428.156C632.153 427.791 644.601 421.129 654.719 411.25L673.188 393.25L673.594 379.312L679.969 374.438ZM417.719 377.062L418.688 381.219C419.245 383.529 420.698 386.858 421.969 388.531C424.757 392.594 431.267 397.055 436.125 398.25C443.773 400.082 454.528 397.3 458.75 392.281C460.662 389.971 460.746 389.98 460.187 391.812C457.479 400.815 444.514 405.423 433.281 401.438C423.562 398.091 417.497 390.451 417.656 381.688L417.719 377.062ZM620.469 377.062L620.531 381.688C620.69 390.451 614.626 398.091 604.906 401.438C593.673 405.423 580.709 400.815 578 391.812C577.441 389.98 577.525 389.971 579.438 392.281C583.66 397.3 594.414 400.082 602.062 398.25C606.921 397.055 613.43 392.594 616.219 388.531C617.49 386.858 618.942 383.529 619.5 381.219L620.469 377.062ZM412.875 387C413.847 387.095 418.868 396.86 424.625 401.344C431.603 406.777 440.082 406.815 441.719 406.812C444.507 406.812 432.898 413.356 421.125 404.406C410.691 396.473 412.551 386.968 412.875 387ZM625.312 387C625.637 386.968 627.496 396.473 617.062 404.406C605.29 413.357 593.68 406.812 596.469 406.812C598.106 406.815 606.585 406.777 613.562 401.344C619.319 396.86 624.341 387.095 625.312 387ZM500.5 396.594C502.458 396.154 508.521 401.937 509.062 415.75C509.381 423.637 508.874 432.564 508.875 432.562C508.736 432.562 501.75 428.219 501.75 428.219C501.75 428.219 503.883 418.719 504 415.656C504.445 403.95 499.277 396.869 500.5 396.594ZM537.688 396.594C538.911 396.869 533.742 403.95 534.188 415.656C534.304 418.719 536.438 428.219 536.438 428.219C536.437 428.219 529.451 432.562 529.312 432.562C529.314 432.564 528.806 423.637 529.125 415.75C529.667 401.937 535.729 396.153 537.688 396.594ZM494.469 400.094C495.308 400.479 497.948 408.447 498.312 411.844C499.092 418.765 495.375 426.031 495.375 426.031L490.469 424.594C490.469 424.594 496.198 416.314 494.406 402.688C494.143 400.687 494.192 399.965 494.469 400.094ZM543.719 400.094C543.996 399.965 544.044 400.687 543.781 402.688C541.989 416.314 547.719 424.594 547.719 424.594L542.812 426.031C542.812 426.031 539.096 418.765 539.875 411.844C540.24 408.447 542.879 400.479 543.719 400.094ZM372.281 421.281C375.57 421.281 378.22 423.93 378.219 427.219C378.219 430.507 375.57 433.189 372.281 433.188C368.993 433.188 366.311 430.507 366.312 427.219C366.312 423.93 368.993 421.28 372.281 421.281ZM665.906 421.281C669.195 421.28 671.875 423.93 671.875 427.219C671.876 430.507 669.195 433.188 665.906 433.188C662.618 433.189 659.969 430.507 659.969 427.219C659.967 423.93 662.618 421.281 665.906 421.281ZM342.625 453.906C345.418 454.074 356.184 456.033 356.187 456.031L341.656 470.062L334 462.594L342.625 453.906ZM695.562 453.906L704.188 462.594L696.531 470.062L682 456.031C682.003 456.033 692.769 454.074 695.562 453.906ZM365.812 454.5L371.219 459.906L347.156 483.188L341.781 477.781L365.812 454.5ZM672.375 454.5L696.406 477.781L691.031 483.188L666.969 459.906L672.375 454.5ZM436 456.281C438.283 456.281 440.123 458.154 440.125 460.437C440.125 462.721 438.283 464.561 436 464.562C433.717 464.562 431.877 462.721 431.875 460.437C431.875 458.154 433.717 456.283 436 456.281ZM602.188 456.281C604.471 456.283 606.312 458.154 606.312 460.437C606.311 462.721 604.471 464.562 602.188 464.562C599.904 464.561 598.062 462.721 598.062 460.437C598.064 458.154 599.904 456.281 602.188 456.281ZM330.719 467.812C334.047 467.812 336.749 470.516 336.75 473.844C336.75 477.172 334.047 479.874 330.719 479.875C327.391 479.875 324.657 477.172 324.656 473.844C324.656 470.516 327.391 467.814 330.719 467.812ZM707.469 467.812C710.797 467.814 713.531 470.516 713.531 473.844C713.531 477.172 710.797 479.875 707.469 479.875C704.141 479.874 701.438 477.172 701.438 473.844C701.438 470.516 704.141 467.812 707.469 467.812ZM336.406 481.469L343.406 488.406L332.781 498.75L326.094 491.781L336.406 481.469ZM701.781 481.469L712.094 491.781L705.406 498.75L694.781 488.406L701.781 481.469ZM388.187 519.375C392.087 519.375 395.253 522.538 395.25 526.438C395.25 530.337 392.087 533.501 388.187 533.5C387.634 533.5 387.143 533.308 386.625 533.188L360.5 559.781L360.406 584.875L325.938 619.656L321.562 615.906L354.562 581.406L354.687 556.531L381.906 529.562C381.433 528.615 381.125 527.567 381.125 526.438C381.125 522.538 384.288 519.374 388.187 519.375ZM650 519.375C653.9 519.374 657.062 522.538 657.062 526.438C657.063 527.567 656.754 528.615 656.281 529.562L683.5 556.531L683.625 581.406L716.625 615.906L712.25 619.656L677.781 584.875L677.688 559.781L651.562 533.188C651.045 533.308 650.553 533.5 650 533.5C646.101 533.501 642.938 530.337 642.938 526.438C642.935 522.538 646.101 519.375 650 519.375ZM392.656 538.281L392.656 547.094L379.562 560.344L379.531 568.406L365.531 582.719L365.531 575.125L373.562 566.719L373.75 557.906L392.656 538.281ZM645.531 538.281L664.438 557.906L664.625 566.719L672.656 575.125L672.656 582.719L658.656 568.406L658.625 560.344L645.531 547.094L645.531 538.281ZM504.406 569.156C505.287 569.029 533.137 569.063 533.781 569.156C534.897 569.315 538.376 569.835 541.562 570.312C555.979 572.465 577.516 579.336 591.219 586.188C598.312 589.771 613.839 599.567 613.281 600.125C613.126 600.364 610.266 599.417 607 598.062C603.812 596.706 596.375 594.403 590.719 592.969C580.282 590.181 563.25 586.306 563.25 586.625C563.253 586.785 566.914 588.582 571.375 590.812C579.105 594.636 591.683 602.433 594.312 605.062C594.95 605.698 592.08 604.432 587.937 602.281C572.323 593.996 555.07 588.427 536.906 585.719C533.786 585.268 504.402 585.268 501.281 585.719C483.117 588.427 465.864 593.996 450.25 602.281C446.107 604.432 443.238 605.698 443.875 605.062C446.504 602.433 459.083 594.636 466.812 590.812C471.274 588.582 474.934 586.785 474.937 586.625C474.937 586.306 457.905 590.181 447.469 592.969C441.812 594.403 434.376 596.706 431.188 598.062C427.921 599.417 425.062 600.365 424.906 600.125C424.349 599.567 439.875 589.771 446.969 586.188C460.671 579.336 482.209 572.465 496.625 570.312C499.812 569.835 503.291 569.315 504.406 569.156ZM502.875 629.125L509.188 629.125L509.531 697.469L502.969 697.375L502.875 629.125ZM529 629.125L535.312 629.125L535.219 697.375L528.656 697.469L529 629.125ZM414.719 126.906C409.246 126.906 404.813 131.34 404.812 136.812C404.813 138.865 405.586 140.668 406.656 142.25L406.719 191.375L446.469 229.281L446.531 216.375L421.875 191.125L420.75 144.469C423.064 142.655 424.625 139.981 424.625 136.812C424.625 131.34 420.191 126.906 414.719 126.906ZM623.469 126.906C617.996 126.906 613.563 131.34 613.562 136.812C613.563 139.981 615.124 142.655 617.438 144.469L616.312 191.125L591.656 216.375L591.719 229.281L631.469 191.375L631.531 142.25C632.601 140.668 633.375 138.865 633.375 136.812C633.375 131.34 628.941 126.906 623.469 126.906ZM392.688 136.812C388.146 136.812 384.439 140.49 384.437 145.031C384.438 148.026 386.105 150.531 388.5 151.969L388.875 215.156L428.625 253.531L428.75 317.156L435.281 317.438L436.031 248.031L399.531 211.531L399.594 204.125L439.625 244.219L439.719 285.906L447.5 285.75L447.062 240.969L400.031 193.906L399.469 149.375C400.294 148.093 400.875 146.669 400.875 145.031C400.875 140.49 397.229 136.812 392.688 136.812ZM645.5 136.812C640.958 136.812 637.313 140.49 637.312 145.031C637.313 146.669 637.893 148.093 638.719 149.375L638.156 193.906L591.125 240.969L590.688 285.75L598.469 285.906L598.562 244.219L638.594 204.125L638.656 211.531L602.156 248.031L602.906 317.438L609.438 317.156L609.562 253.531L649.312 215.156L649.688 151.969C652.083 150.531 653.75 148.026 653.75 145.031C653.748 140.49 650.041 136.812 645.5 136.812ZM371.25 146C367.813 146 365.034 148.813 365.031 152.25C365.031 155.687 367.813 158.5 371.25 158.5C371.325 158.5 374.125 160.688 374.125 160.688L374.219 224.562L416.125 265.688L417.062 297.375C415.703 298.228 414.717 299.682 414.719 301.406C414.719 304.071 416.865 306.219 419.531 306.219C422.196 306.219 424.375 304.071 424.375 301.406C424.375 299.747 423.494 298.368 422.219 297.5L422.406 258.25L382.187 218.656L381.625 159.125L376.75 154.969C377.167 154.134 377.469 153.247 377.469 152.25C377.469 148.813 374.687 146 371.25 146ZM666.937 146C663.5 146 660.719 148.813 660.719 152.25C660.719 153.247 661.021 154.134 661.438 154.969L656.562 159.125L656 218.656L615.781 258.25L615.969 297.5C614.693 298.368 613.812 299.747 613.812 301.406C613.813 304.071 615.991 306.219 618.656 306.219C621.322 306.219 623.469 304.071 623.469 301.406C623.47 299.682 622.485 298.228 621.125 297.375L622.062 265.688L663.969 224.562L664.062 160.688C664.062 160.688 666.862 158.5 666.937 158.5C670.375 158.5 673.156 155.687 673.156 152.25C673.153 148.813 670.374 146 666.937 146ZM355.312 159.344C351.081 159.344 347.655 162.769 347.656 167C347.656 171.232 351.081 174.657 355.312 174.656C356.089 174.656 356.826 174.466 357.531 174.25L361.531 180L361.5 220.062L353.062 224.969L353.031 240.656L378.844 265.25L379.031 280.469L392.875 294.219L392.875 324.469L398.812 324.906L399.25 289.406L390.531 279.906L390.562 266.438L381.5 257.719L385.187 253.906L404.344 272.625L404.437 284.031C403.078 284.885 402.124 286.338 402.125 288.062C402.125 290.727 404.271 292.876 406.937 292.875C409.602 292.875 411.781 290.727 411.781 288.062C411.781 286.167 410.652 284.54 409.062 283.75L408.875 268.812L381.75 242.281L375.688 248.438L368.875 242.125L369.5 179.656L362.375 170C362.763 169.083 362.997 168.058 363 167C363 162.768 359.544 159.344 355.312 159.344ZM682.875 159.344C678.643 159.344 675.187 162.768 675.187 167C675.19 168.058 675.425 169.083 675.812 170L668.688 179.656L669.312 242.125L662.5 248.438L656.438 242.281L629.312 268.812L629.125 283.75C627.535 284.54 626.406 286.167 626.406 288.062C626.406 290.727 628.585 292.875 631.25 292.875C633.916 292.876 636.063 290.727 636.062 288.062C636.064 286.338 635.11 284.885 633.75 284.031L633.844 272.625L653 253.906L656.688 257.719L647.625 266.438L647.656 279.906L638.938 289.406L639.375 324.906L645.312 324.469L645.312 294.219L659.156 280.469L659.344 265.25L685.156 240.656L685.125 224.969L676.687 220.062L676.656 180L680.656 174.25C681.361 174.466 682.098 174.656 682.875 174.656C687.107 174.657 690.531 171.232 690.531 167C690.533 162.769 687.107 159.344 682.875 159.344ZM339.719 179.031C331.768 179.031 325.281 185.487 325.281 193.438C325.281 200.327 330.13 206.055 336.594 207.469L336.656 238.375L314.312 238.438L293.781 219.75L287.687 226.25L317.437 252.625L347.094 252.719L371.969 277L371.688 267.344L345.969 241.625L345.875 206.344C350.717 204.025 354.094 199.164 354.094 193.438C354.094 185.487 347.668 179.032 339.719 179.031ZM698.469 179.031C690.52 179.032 684.094 185.487 684.094 193.438C684.093 199.164 687.47 204.025 692.312 206.344L692.219 241.625L666.5 267.344L666.219 277L691.094 252.719L720.75 252.625L750.5 226.25L744.406 219.75L723.875 238.438L701.531 238.375L701.594 207.469C708.057 206.055 712.906 200.327 712.906 193.438C712.906 185.487 706.419 179.031 698.469 179.031ZM313.125 201.938C306.671 201.938 301.697 207.143 301.469 213.594C301.118 223.51 306.593 226.168 313.781 226.188C324.12 226.216 324.844 216.062 324.844 213.594C324.844 207.139 319.579 201.937 313.125 201.938ZM725.063 201.938C718.608 201.937 713.344 207.139 713.344 213.594C713.344 216.062 714.067 226.216 724.406 226.188C731.595 226.168 737.07 223.51 736.719 213.594C736.491 207.143 731.517 201.938 725.063 201.938ZM374.969 285.219L375.156 307.719L385.719 316.375L385.531 295.688L374.969 285.219ZM663.219 285.219L652.656 295.688L652.469 316.375L663.031 307.719L663.219 285.219ZM443.375 289.031C440.71 289.031 438.563 291.21 438.562 293.875C438.562 296.54 440.709 298.719 443.375 298.719C446.04 298.719 448.22 296.54 448.219 293.875C448.219 291.21 446.04 289.03 443.375 289.031ZM594.812 289.031C592.148 289.031 589.969 291.21 589.969 293.875C589.967 296.54 592.148 298.719 594.812 298.719C597.479 298.719 599.625 296.54 599.625 293.875C599.625 291.21 597.477 289.031 594.812 289.031ZM469.406 295.25C466.741 295.25 464.563 297.398 464.562 300.062C464.562 302.727 466.742 304.875 469.406 304.875C472.071 304.875 474.219 302.727 474.219 300.062C474.219 297.398 472.071 295.25 469.406 295.25ZM568.781 295.25C566.117 295.25 563.969 297.398 563.969 300.062C563.969 302.727 566.116 304.875 568.781 304.875C571.446 304.875 573.625 302.727 573.625 300.062C573.625 297.398 571.446 295.25 568.781 295.25ZM406.937 296.594C404.273 296.594 402.125 298.741 402.125 301.406C402.125 304.071 404.271 306.219 406.937 306.219C409.602 306.219 411.781 304.071 411.781 301.406C411.781 298.741 409.602 296.594 406.937 296.594ZM631.25 296.594C628.585 296.594 626.406 298.741 626.406 301.406C626.406 304.071 628.585 306.219 631.25 306.219C633.916 306.219 636.063 304.071 636.062 301.406C636.063 298.741 633.915 296.594 631.25 296.594ZM443.375 303.25C440.71 303.25 438.563 305.46 438.562 308.125C438.562 310.79 440.709 312.938 443.375 312.938C446.04 312.937 448.22 310.789 448.219 308.125C448.219 305.46 446.04 303.249 443.375 303.25ZM594.812 303.25C592.148 303.249 589.969 305.46 589.969 308.125C589.967 310.789 592.148 312.937 594.812 312.938C597.479 312.938 599.625 310.79 599.625 308.125C599.625 305.46 597.477 303.25 594.812 303.25ZM469.406 308.125C466.741 308.125 464.563 310.274 464.562 312.938C464.562 315.602 466.742 317.749 469.406 317.75C472.071 317.75 474.219 315.602 474.219 312.938C474.219 310.273 472.071 308.125 469.406 308.125ZM568.781 308.125C566.117 308.125 563.969 310.273 563.969 312.938C563.969 315.602 566.116 317.75 568.781 317.75C571.446 317.749 573.625 315.602 573.625 312.938C573.625 310.274 571.446 308.125 568.781 308.125ZM407.062 308.531C404.061 308.531 401.624 310.968 401.625 313.969C401.625 316.97 404.061 319.406 407.062 319.406C410.064 319.406 412.466 316.97 412.469 313.969C412.469 310.967 410.063 308.531 407.062 308.531ZM631.125 308.531C628.125 308.531 625.719 310.967 625.719 313.969C625.722 316.97 628.123 319.406 631.125 319.406C634.127 319.406 636.563 316.97 636.562 313.969C636.564 310.968 634.127 308.531 631.125 308.531ZM518.156 318.781C515.096 319.226 512.717 321.752 512.719 324.938C512.719 328.133 515.111 330.635 518.188 331.062C518.476 331.103 519.711 331.103 520 331.062C523.076 330.635 525.469 328.133 525.469 324.938C525.47 321.752 523.091 319.226 520.031 318.781C519.733 318.738 518.455 318.738 518.156 318.781ZM441.125 324.906C435.956 324.906 431.78 329.08 431.781 334.25C431.781 339.419 435.957 343.594 441.125 343.594C446.294 343.594 450.498 339.419 450.5 334.25C450.5 329.081 446.294 324.907 441.125 324.906ZM597.062 324.906C591.893 324.907 587.687 329.081 587.688 334.25C587.689 339.419 591.893 343.594 597.062 343.594C602.23 343.594 606.406 339.419 606.406 334.25C606.408 329.08 602.232 324.906 597.062 324.906ZM233.094 359.656C228.865 359.656 225.407 363.012 225.406 367.125C225.406 371.239 228.865 374.592 233.094 374.594C234.324 374.594 235.439 374.219 236.469 373.719L276.844 373.594L268.25 365.656L240.469 365.75C239.776 362.329 236.811 359.656 233.094 359.656ZM805.094 359.656C801.376 359.656 798.411 362.329 797.719 365.75L769.938 365.656L761.344 373.594L801.719 373.719C802.749 374.219 803.863 374.594 805.094 374.594C809.322 374.592 812.781 371.239 812.781 367.125C812.781 363.012 809.322 359.656 805.094 359.656ZM399.594 427.344C395.184 427.344 391.627 430.934 391.625 435.344C391.625 439.753 395.186 443.314 399.594 443.312C404.003 443.313 407.592 439.755 407.594 435.344C407.594 430.934 404.002 427.344 399.594 427.344ZM638.594 427.344C634.186 427.344 630.594 430.934 630.594 435.344C630.595 439.755 634.184 443.313 638.594 443.312C643.002 443.314 646.562 439.753 646.562 435.344C646.561 430.934 643.003 427.344 638.594 427.344ZM415.156 436.656C412.448 436.656 410.248 438.854 410.25 441.562C410.25 444.271 412.449 446.47 415.156 446.469C417.865 446.469 420.033 444.271 420.031 441.562C420.031 438.854 417.862 436.66 415.156 436.656ZM623.031 436.656C620.325 436.659 618.156 438.854 618.156 441.562C618.155 444.271 620.323 446.469 623.031 446.469C625.738 446.47 627.937 444.271 627.938 441.562C627.939 438.854 625.74 436.656 623.031 436.656ZM493.344 450.75C492.228 450.75 489.57 451.635 487.5 452.75C476.586 458.327 466.657 468.198 464.906 475.125C464.428 477.117 462.895 477.526 461.781 473.063C462.659 464.401 458.918 469.002 458.281 469.875C456.768 472.026 457.325 475.842 459.875 479.906C461.309 482.057 467.657 488.909 474.031 495.125C480.484 501.259 487.369 508.34 489.281 510.812C491.114 513.282 492.873 515.191 493.031 515.031C493.191 514.792 490.569 509.391 487.219 502.938C480.288 489.713 480.113 490.126 490.469 494.906C497.4 498.173 501.57 501.894 509.219 511.531C512.485 515.754 515.249 518.881 515.406 518.562C515.486 518.244 515.306 515.298 514.906 512.031C514.508 508.765 514.277 505.951 514.438 505.875C514.477 505.796 516.703 507.938 519 507.938C521.319 507.937 523.71 505.795 523.75 505.875C523.91 505.951 523.68 508.765 523.281 512.031C522.882 515.298 522.702 518.244 522.781 518.562C522.938 518.881 525.702 515.754 528.969 511.531C536.618 501.894 540.788 498.173 547.719 494.906C558.075 490.126 557.9 489.713 550.969 502.938C547.619 509.391 544.997 514.792 545.156 515.031C545.314 515.191 547.074 513.282 548.906 510.812C550.818 508.34 557.703 501.259 564.156 495.125C570.53 488.909 576.878 482.057 578.312 479.906C580.862 475.842 581.42 472.026 579.906 469.875C579.27 469.002 575.529 464.401 576.406 473.063C575.292 477.525 573.759 477.117 573.281 475.125C571.53 468.198 561.602 458.327 550.688 452.75C548.618 451.635 545.959 450.75 544.844 450.75C542.772 450.75 539.344 453.313 539.344 454.906C539.341 455.387 541.36 457.857 543.75 460.406C547.971 464.867 549.245 467.095 547.094 466.219C544.146 465.103 537.114 470.51 532.812 477.281C531.376 479.589 530.037 481.497 529.719 481.656C529.536 481.715 523.815 487.028 520.844 489.406C520.079 490.018 518.128 490.034 517.344 489.406C514.373 487.028 508.652 481.715 508.469 481.656C508.15 481.497 506.811 479.589 505.375 477.281C501.073 470.51 494.042 465.103 491.094 466.219C488.943 467.095 490.217 464.867 494.438 460.406C496.828 457.857 498.847 455.387 498.844 454.906C498.844 453.313 495.415 450.75 493.344 450.75ZM266.719 450.844C261.11 450.844 256.433 454.763 255.219 460L236.75 460.406C235.551 457.347 232.567 455.157 229 455.156C224.387 455.156 220.624 458.793 220.625 463.281C220.625 467.77 224.388 471.405 229 471.406C232.841 471.406 235.931 468.84 236.906 465.406L255.187 465.219C256.353 470.525 261.062 474.499 266.719 474.5C273.25 474.5 278.563 469.219 278.562 462.688C278.562 456.156 273.251 450.845 266.719 450.844ZM771.469 450.844C764.937 450.845 759.625 456.156 759.625 462.688C759.624 469.219 764.938 474.5 771.469 474.5C777.125 474.499 781.834 470.525 783 465.219L801.281 465.406C802.257 468.84 805.347 471.406 809.188 471.406C813.8 471.405 817.563 467.77 817.563 463.281C817.563 458.793 813.801 455.156 809.188 455.156C805.62 455.157 802.636 457.347 801.438 460.406L782.969 460C781.754 454.763 777.078 450.844 771.469 450.844ZM298.094 456.312L273.594 479.062L256.687 479.125C255.902 474.767 252.242 471.405 247.656 471.406C242.503 471.406 238.344 475.598 238.344 480.75C238.344 480.899 238.431 481.008 238.437 481.156L234.531 481.719C233.626 481.147 232.619 480.751 231.469 480.75C228.232 480.75 225.626 483.357 225.625 486.594C225.625 489.831 228.231 492.469 231.469 492.469C234.706 492.469 237.344 489.831 237.344 486.594C237.344 486.265 237.208 485.974 237.156 485.656L239.594 485.125C241.174 488.032 244.115 490.062 247.656 490.062C248.151 490.062 278.499 490.032 278.5 490.031L314.625 456.344L298.094 456.312ZM740.094 456.312L723.562 456.344L759.688 490.031C759.688 490.032 790.036 490.062 790.531 490.062C794.072 490.062 797.013 488.032 798.594 485.125L801.031 485.656C800.979 485.974 800.844 486.265 800.844 486.594C800.844 489.831 803.482 492.469 806.719 492.469C809.956 492.469 812.563 489.831 812.563 486.594C812.562 483.357 809.956 480.75 806.719 480.75C805.569 480.751 804.561 481.147 803.656 481.719L799.75 481.156C799.757 481.008 799.844 480.899 799.844 480.75C799.844 475.598 795.685 471.406 790.531 471.406C785.946 471.405 782.286 474.767 781.5 479.125L764.594 479.062L740.094 456.312ZM261.75 493.938C257.194 493.937 253.6 497.245 252.781 501.562L247.344 501.562C246.604 499.172 244.446 497.408 241.812 497.406C238.576 497.406 235.969 500.044 235.969 503.281C235.969 506.518 238.576 509.126 241.812 509.125C244.788 509.125 247.154 506.87 247.531 504L252.562 503.906C252.917 508.736 256.83 512.565 261.75 512.562C266.903 512.563 271.093 508.403 271.094 503.25C271.094 498.097 266.903 493.938 261.75 493.938ZM776.438 493.938C771.285 493.938 767.094 498.097 767.094 503.25C767.094 508.403 771.284 512.562 776.438 512.562C781.357 512.565 785.27 508.736 785.625 503.906L790.656 504C791.033 506.87 793.399 509.125 796.375 509.125C799.612 509.126 802.219 506.518 802.219 503.281C802.219 500.044 799.612 497.406 796.375 497.406C793.742 497.408 791.583 499.172 790.844 501.562L785.406 501.562C784.587 497.245 780.993 493.937 776.438 493.938ZM308 503.062C305.407 503.063 303.312 505.154 303.312 507.75C303.312 510.343 305.407 512.469 308 512.469C310.593 512.469 312.719 510.343 312.719 507.75C312.719 505.157 310.593 503.063 308 503.062ZM730.188 503.062C727.594 503.063 725.469 505.157 725.469 507.75C725.469 510.343 727.594 512.469 730.188 512.469C732.781 512.469 734.875 510.343 734.875 507.75C734.875 505.154 732.781 503.062 730.188 503.062ZM315.437 512.562L295.406 532.719L294.812 550.875L285.25 559.906C283.171 557.715 280.26 556.313 277 556.312C270.698 556.312 265.593 561.449 265.594 567.75C265.594 569.423 265.979 570.976 266.625 572.406L265.312 573.812C264.261 573.157 263.081 572.624 261.75 572.625C257.963 572.625 254.906 575.713 254.906 579.5C254.906 583.287 257.963 586.375 261.75 586.375C265.537 586.375 268.625 583.285 268.625 579.5C268.625 578.292 268.238 577.205 267.687 576.219L268.688 575.469C270.771 577.707 273.701 579.127 277 579.125C279.162 579.125 281.153 578.513 282.875 577.469L282.969 577.5L283.094 577.344C284.578 576.402 285.899 574.627 286.812 573.125L303.562 556.406L304.531 537.531L322.219 519.625L315.437 512.562ZM722.75 512.562L715.969 519.625L733.656 537.531L734.625 556.406L751.375 573.125C752.289 574.627 753.61 576.402 755.094 577.344L755.219 577.5L755.312 577.469C757.034 578.513 759.025 579.125 761.188 579.125C764.487 579.127 767.416 577.707 769.5 575.469L770.5 576.219C769.95 577.205 769.563 578.292 769.562 579.5C769.563 583.285 772.651 586.375 776.438 586.375C780.224 586.375 783.281 583.287 783.281 579.5C783.281 575.713 780.224 572.625 776.438 572.625C775.106 572.624 773.926 573.157 772.875 573.812L771.562 572.406C772.209 570.976 772.594 569.423 772.594 567.75C772.595 561.449 767.49 556.313 761.188 556.312C757.928 556.313 755.017 557.715 752.938 559.906L743.375 550.875L742.781 532.719L722.75 512.562ZM388.281 522.938C386.262 522.937 384.594 524.574 384.594 526.594C384.594 528.613 386.263 530.281 388.281 530.281C390.3 530.281 391.936 528.613 391.937 526.594C391.938 524.575 390.301 522.938 388.281 522.938ZM649.906 522.938C647.887 522.938 646.25 524.575 646.25 526.594C646.252 528.613 647.887 530.281 649.906 530.281C651.924 530.281 653.594 528.613 653.594 526.594C653.594 524.574 651.925 522.937 649.906 522.938ZM355.187 607.781C351.153 607.781 347.906 611.058 347.906 615.094C347.906 619.128 351.154 622.405 355.187 622.406C359.222 622.406 362.5 619.128 362.5 615.094C362.5 611.06 359.221 607.78 355.187 607.781ZM683 607.781C678.966 607.78 675.687 611.06 675.688 615.094C675.687 619.128 678.966 622.406 683 622.406C687.034 622.405 690.281 619.128 690.281 615.094C690.281 611.058 687.034 607.781 683 607.781ZM395.312 620.719C392.953 620.719 391.031 622.641 391.031 625C391.031 627.36 392.951 629.281 395.312 629.281C397.672 629.281 399.594 627.36 399.594 625C399.594 622.64 397.673 620.717 395.312 620.719ZM642.875 620.719C640.515 620.717 638.594 622.64 638.594 625C638.594 627.36 640.515 629.281 642.875 629.281C645.237 629.281 647.156 627.36 647.156 625C647.156 622.641 645.235 620.719 642.875 620.719Z" fill="url(#LinearGradient)" fill-rule="nonzero" opacity="1" stroke="none"/>
<path d="M236.173 803.33L236.207 879.392L236.242 915.83L275.909 915.83L276.047 858.205L307.478 891.861L337.909 858.205L338.288 915.83L375.509 915.83L375.474 898.049C384.555 908.267 399.799 915.843 424.792 915.83C446.585 915.819 461.225 909.773 470.801 900.517L470.766 915.83L511.847 915.83L511.984 864.549L556.787 915.83L605.002 915.83L605.002 873.799L641.119 915.83L770.082 915.83L770.151 881.486L711.77 881.486L711.77 865.892L758.709 865.892L744.786 849.799L711.77 849.767L711.77 833.111L767.153 833.111L796.343 869.517L796.998 915.83L847.418 915.83L847.522 869.049L872.094 821.799L834.184 821.267L822.777 845.799L787.073 803.33L640.913 803.33L605.002 838.58L605.002 803.361L556.58 803.33L556.58 861.486L511.984 803.33L470.801 803.33L470.801 817.799C461.225 808.618 446.478 803.33 424.688 803.33C399.756 803.33 384.439 809.415 375.371 819.799L375.371 803.33L337.289 803.33L306.375 836.58L275.771 803.33L236.173 803.33ZM671.068 820.83C671.035 840.461 671.049 873.4 671.068 895.424L636.639 855.392L671.068 820.83ZM424.688 836.111C444.123 836.488 454.812 837.125 454.878 858.08C454.944 878.802 444.41 879.348 424.688 880.049C402.109 880.851 394.655 875.761 394.464 858.08C394.231 836.565 407.998 835.787 424.688 836.111ZM192.714 803.517C170.171 803.517 170.175 812.28 170.175 823.111C170.175 833.941 170.171 842.406 192.714 842.736C215.005 843.062 215.253 833.941 215.253 823.111C215.253 812.281 215.01 803.517 192.714 803.517ZM169.934 856.606L169.934 915.832L215.046 915.832L215.046 856.606L169.934 856.606Z" fill="#ffffff" fill-rule="nonzero" opacity="1" stroke="none"/>
</g>
</g>
</svg>
