<?xml version="1.0" encoding="UTF-8" standalone="no"?>
<!DOCTYPE svg PUBLIC "-//W3C//DTD SVG 1.1//EN" "http://www.w3.org/Graphics/SVG/1.1/DTD/svg11.dtd">
<!-- Created with Vectornator (http://vectornator.io/) -->
<svg height="170.0px" stroke-miterlimit="10" style="fill-rule:nonzero;clip-rule:evenodd;stroke-linecap:round;stroke-linejoin:round;" version="1.1" viewBox="0 0 1000 170" width="1000.0px" xml:space="preserve" xmlns="http://www.w3.org/2000/svg" xmlns:xlink="http://www.w3.org/1999/xlink">
<defs/>
<g id="Capa-1">
<path d="M150.914 16.2325L150.956 109.451L150.998 154.106L199.613 154.106L199.782 83.4844L238.301 124.732L275.596 83.4844L276.061 154.106L321.677 154.106L321.634 132.315C332.763 144.838 351.446 154.122 382.075 154.106C408.784 154.093 426.726 146.683 438.461 135.34L438.419 154.106L488.765 154.106L488.934 91.2589L543.842 154.106L602.931 154.106L602.931 102.595L647.195 154.106L805.245 154.106L805.329 112.017L733.78 112.017L733.78 92.9057L791.307 92.9057L774.243 73.1821L733.78 73.1438L733.78 52.7308L801.655 52.7308L837.429 97.3484L838.232 154.106L900.024 154.106L900.151 96.7739L930.265 38.8668L883.805 38.2157L869.825 68.2799L826.067 16.2325L646.941 16.2325L602.931 59.433L602.931 16.2708L543.588 16.2325L543.588 87.5057L488.934 16.2325L438.461 16.2325L438.461 33.9646C426.726 22.7136 408.653 16.2324 381.948 16.2325C351.393 16.2325 332.621 23.6902 321.508 36.4157L321.508 16.2325L274.836 16.2325L236.95 56.9819L199.444 16.2325L150.914 16.2325ZM683.899 37.6795C683.858 61.7385 683.875 102.107 683.899 129.098L641.704 80.0375L683.899 37.6795ZM381.948 56.4074C405.766 56.8697 418.867 57.6497 418.948 83.3312C419.028 108.727 406.118 109.396 381.948 110.255C354.276 111.238 345.141 105 344.907 83.3312C344.622 56.9638 361.493 56.0105 381.948 56.4074ZM97.6532 16.4623C70.026 16.4623 70.0304 27.202 70.0304 40.4753C70.0304 53.7484 70.026 64.1223 97.6532 64.5267C124.972 64.9267 125.276 53.7485 125.276 40.4753C125.276 27.2022 124.978 16.4623 97.6532 16.4623ZM69.7347 81.5255L69.7347 154.109L125.023 154.109L125.023 81.5255L69.7347 81.5255Z" fill="#ffffff" fill-rule="nonzero" opacity="1" stroke="none"/>
</g>
</svg>
